<?xml version="1.0" encoding="utf-8"?>
<!-- Generator: Adobe Illustrator 22.1.0, SVG Export Plug-In . SVG Version: 6.00 Build 0)  -->
<svg version="1.1" id="Layer_1" xmlns="http://www.w3.org/2000/svg" xmlns:xlink="http://www.w3.org/1999/xlink" x="0px" y="0px"
	 width="545.5px" height="124.4px" viewBox="0 0 545.5 124.4" style="enable-background:new 0 0 545.5 124.4;" xml:space="preserve"
	>
<style type="text/css">
	.st0{fill:#04776E;}
	.st1{fill:#010101;}
</style>
<g>
	<path class="st0" d="M478.2,33.6c0,0-6.1-6.5-21.5-6.5c-14.8,0-21.6,7.1-21.6,7.1v-6.7c0-4.1,2.8-7.5,10.1-7.5h22.6
		c7.3,0,10.4,3.3,10.4,7.5V33.6z"/>
	<path class="st0" d="M478.2,87.2c0,0-6.1,6.5-21.5,6.5c-14.8,0-21.6-7.1-21.6-7.1v6.7c0,4.1,2.8,7.5,10.1,7.5h22.6
		c7.3,0,10.4-3.3,10.4-7.5V87.2z"/>
	<path class="st0" d="M81,31.8h8.1L66.2,89h-1.8L45.7,42.7L26.9,89H25L2.2,31.8h8.2L26,71.1l15.8-39.3h7.8l15.8,39.3L81,31.8z"/>
	<path class="st0" d="M106.8,31.5h5.7l25.6,57.3h-8.3L122.2,72H98l-7.1,16.8h-8.4L106.8,31.5z M119,64.7L109.7,44l-8.6,20.7H119z"/>
	<path class="st0" d="M131.3,31.8h47.6v7.3h-19.8v49.7h-8.2V39.1h-19.5L131.3,31.8L131.3,31.8z"/>
	<path class="st0" d="M235.6,75.6v9c-6,3.3-12.9,4.9-20.7,4.9c-6.4,0-11.7-1.3-16.2-3.8c-4.4-2.6-7.9-6.1-10.5-10.6
		s-3.9-9.3-3.9-14.6c0-8.3,3-15.3,8.9-20.9c5.9-5.7,13.2-8.5,21.8-8.5c6,0,12.6,1.6,19.9,4.7v8.8c-6.6-3.8-13.1-5.7-19.5-5.7
		c-6.5,0-11.9,2.1-16.2,6.2s-6.5,9.3-6.5,15.5c0,6.3,2.1,11.4,6.4,15.4c4.2,4,9.6,6,16.2,6C222.3,81.9,229,79.8,235.6,75.6z"/>
	<path class="st0" d="M285.8,31.8h8.1v57h-8.1V64h-32v24.8h-8.1v-57h8.1v24.6h32V31.8z"/>
	<path class="st1" d="M345.2,35.5v11.1c-7.6-3.3-13.6-5-18-5c-2.6,0-4.6,0.4-6.1,1.3c-1.5,0.9-2.3,2-2.3,3.4c0,1.1,0.5,2.1,1.6,3.1
		s3.7,2.2,8,3.8c4.2,1.6,7.6,3,10.1,4.3s4.7,3.2,6.6,5.6c1.8,2.4,2.8,5.5,2.8,9.2c0,5.3-2,9.5-6,12.6s-9.3,4.7-15.9,4.7
		c-7.1,0-13.9-1.8-20.6-5.5V71.9c3.8,2.5,7.2,4.4,10.1,5.6c2.9,1.2,6.1,1.7,9.4,1.7c5.6,0,8.4-1.8,8.4-5.3c0-1.2-0.6-2.3-1.7-3.4
		c-1.1-1.1-3.8-2.4-8.1-3.9c-4.3-1.5-7.6-2.9-10.1-4.3c-2.5-1.3-4.6-3.2-6.5-5.6c-1.8-2.4-2.7-5.5-2.7-9.3c0-4.9,2-8.9,5.9-11.9
		s9.2-4.5,15.8-4.5C332,31.1,338.5,32.6,345.2,35.5z"/>
	<path class="st1" d="M413.7,31.8v57h-14.2v-23h-28.2v23.1h-14.2v-57h14.2v22.9h28.2v-23C399.5,31.8,413.7,31.8,413.7,31.8z"/>
	<path class="st1" d="M456.8,31.1c9.7,0,17.5,2.9,23.5,8.8s9,12.7,9,20.5c0,7.9-3,14.7-9.1,20.6c-6.1,5.8-13.9,8.7-23.4,8.7
		c-9.6,0-17.5-2.9-23.5-8.7c-6.1-5.8-9.1-12.6-9.1-20.6c0-7.8,3-14.7,9-20.5C439.2,34,447.1,31.1,456.8,31.1z M456.8,77.9
		c5.4,0,9.7-1.6,13-4.8c3.3-3.2,4.9-7.4,4.9-12.6s-1.6-9.5-4.9-12.6c-3.3-3.2-7.6-4.8-13-4.8s-9.7,1.6-13,4.8
		c-3.3,3.2-4.9,7.4-4.9,12.6s1.6,9.4,4.9,12.6C447,76.3,451.4,77.9,456.8,77.9z"/>
	<path class="st1" d="M500.2,31.8h25.5c5.8,0,10.4,1.7,13.8,5c3.4,3.3,5.1,7.3,5.1,11.9c0,4.7-1.7,8.8-5.1,12.2
		c-3.4,3.4-8,5.1-13.8,5.1h-11.3v22.9h-14.2V31.8z M514.4,42.3v13.3h6.6c5.9,0,8.9-2.2,8.9-6.6c0-2.5-0.8-4.2-2.4-5.2
		c-1.6-1-4.3-1.5-8.1-1.5H514.4z"/>
</g>
</svg>
